<svg width="136" height="30" viewBox="0 0 136 30" fill="none" xmlns="http://www.w3.org/2000/svg">
<path fill-rule="evenodd" clip-rule="evenodd" d="M0 7.95117V29.9314H4.72404V16.366L10.5547 25.2203H13.2973L17.6168 18.6813L18.5248 17.3074L16.0839 13.0945L15.1758 14.4722L11.9406 19.3808L4.37849 7.95117H0Z" fill="white"/>
<path fill-rule="evenodd" clip-rule="evenodd" d="M62.5556 12.0527H59.0352V25.7747H62.5556C66.9249 25.7747 69.2821 23.4456 69.2821 18.9134C69.2821 14.3813 66.9249 12.0527 62.5556 12.0527ZM62.5558 7.89844C70.383 7.89844 74.0917 12.5248 74.0917 18.9137C74.0917 25.3027 70.383 29.9291 62.5558 29.9291H54.3203V7.89844H62.5558Z" fill="white"/>
<path fill-rule="evenodd" clip-rule="evenodd" d="M84.7998 7.89844C87.3081 7.89844 89.847 8.50401 91.6607 9.53277V13.7691C89.8772 12.4983 87.4895 11.863 85.132 11.8932C82.8352 11.9235 81.6866 12.5588 81.6866 13.8602C81.6866 17.5218 93.2625 16.1599 93.2625 23.6949C93.2625 28.4463 89.4541 29.9291 85.0111 29.9291C82.0795 29.9291 79.359 29.233 77.1831 28.0226V23.6949C79.6011 25.299 82.2606 25.9345 84.6789 25.9345C87.127 25.9345 88.6382 25.4203 88.6382 23.9068C88.6382 19.9428 77.0625 21.4255 77.0625 13.9207C77.0625 9.83516 80.6289 7.89844 84.7998 7.89844Z" fill="white"/>
<path fill-rule="evenodd" clip-rule="evenodd" d="M112.324 7.89844V12.053H101.543V16.7423H111.382V20.8651H101.543V25.7747H112.513V29.9291H96.8281V7.89844H112.324Z" fill="white"/>
<path fill-rule="evenodd" clip-rule="evenodd" d="M116.32 29.9291V7.89844H120.752L130.999 22.2814C130.937 21.3687 130.905 20.2672 130.905 19.2599V7.89844H135.62V29.9291H131.188L120.941 15.546C121.004 16.4591 121.035 17.5603 121.035 18.5676V29.9291H116.32Z" fill="white"/>
<path fill-rule="evenodd" clip-rule="evenodd" d="M40.3851 11.9392C40.4108 11.5317 40.3153 11.1168 40.1064 10.7533L38.4598 7.90039H36.7617L38.8302 11.4876C38.9108 11.6273 38.9365 11.7887 38.9037 11.9392H40.3851Z" fill="white"/>
<path fill-rule="evenodd" clip-rule="evenodd" d="M51.1857 19.9145L45.9857 28.9288C45.6298 29.5492 44.9699 29.931 44.2585 29.931H33.8582C33.1468 29.931 32.4866 29.5492 32.131 28.9288L29.0395 23.5681L28.1886 22.0957L26.9307 19.9145C26.5752 19.294 26.5752 18.5339 26.9307 17.9135L32.131 8.89915C32.4866 8.27871 33.1468 7.90039 33.8582 7.90039H36.7662L38.8347 11.4879C38.9153 11.6273 38.941 11.789 38.9079 11.9392H35.0353L31.0123 18.9157L32.8387 22.0808L33.5867 23.3807L35.0353 25.8922H43.0812L47.1041 18.9157L43.0812 11.9392H40.3896C40.415 11.5317 40.3198 11.117 40.1106 10.7536L38.4643 7.90039H44.2585C44.9699 7.90039 45.6298 8.27871 45.9857 8.89915L51.1857 17.9135C51.5415 18.5339 51.5415 19.294 51.1857 19.9145Z" fill="white"/>
<mask id="mask0_15767_3217" style="mask-type:luminance" maskUnits="userSpaceOnUse" x="13" y="0" width="28" height="24">
<path fill-rule="evenodd" clip-rule="evenodd" d="M13.9492 0.0683594H40.391V23.5678H13.9492V0.0683594Z" fill="white"/>
</mask>
<g mask="url(#mask0_15767_3217)">
<path fill-rule="evenodd" clip-rule="evenodd" d="M23.7812 22.0953V23.5677H29.0364L28.1855 22.0953H23.7812ZM40.1082 10.7532L38.4616 7.89997L34.5596 1.13298C34.1783 0.475637 33.4777 0.0681152 32.7151 0.0681152H21.6255C20.8626 0.0681152 20.1624 0.475637 19.7808 1.13298L14.2324 10.7532C13.8548 11.4102 13.8548 12.2255 14.2324 12.8826L15.127 14.4357L17.5622 18.6548L19.0694 21.2691V18.3243L18.468 17.2778L16.0331 13.0552L15.5086 12.1483C15.3911 11.9428 15.3911 11.693 15.5086 11.4875L21.0533 1.87104C21.1708 1.66528 21.3908 1.5405 21.6255 1.5405H32.7151C32.9498 1.5405 33.1699 1.66528 33.2871 1.87104L36.7635 7.89997L38.832 11.4875C38.9126 11.6269 38.9384 11.7886 38.9055 11.9391C38.8943 12.0124 38.8686 12.0822 38.832 12.1483L33.2871 21.7648C33.1919 21.9336 33.0233 22.0512 32.8361 22.0804L33.5843 23.3802C33.9876 23.2002 34.3323 22.8957 34.5596 22.5028L40.1082 12.8826C40.2769 12.589 40.3686 12.2659 40.3869 11.9391C40.4126 11.5313 40.3172 11.1166 40.1082 10.7532Z" fill="#F17900"/>
</g>
<path fill-rule="evenodd" clip-rule="evenodd" d="M23.7799 7.90039V29.931H19.0676V16.3638L18.4662 17.2782L16.0312 13.0556L19.4123 7.90039H23.7799Z" fill="white"/>
</svg>
